<?xml version="1.0" encoding="UTF-8"?>
<svg width="700pt" height="700pt" version="1.1" viewBox="0 0 700 700" xmlns="http://www.w3.org/2000/svg">
 <g>
  <path d="m105 437.5c-10.5 0-17.5-8.75-17.5-17.5 0-5.25 1.75-8.75 5.25-12.25l185.5-178.5c7-7 17.5-7 24.5 0l89.25 85.75 145.25-140c7-7 17.5-7 24.5 0s7 17.5 0 24.5l-159.25 152.25c-7 7-17.5 7-24.5 0l-89.25-85.75-171.5 166.25c-3.5 3.5-7 5.25-12.25 5.25z"/>
  <path d="m588 140h-82.25c-5.25 0-8.75 7-5.25 10.5l40.25 40.25 42 40.25c3.5 3.5 10.5 1.75 10.5-5.25v-78.75c1.75-3.5-1.75-7-5.25-7z"/>
 </g>
</svg>
